<svg width="32" height="32" viewBox="0 0 32 32" fill="none" xmlns="http://www.w3.org/2000/svg">
  <!-- Dark themed background matching the logo -->
  <rect width="32" height="32" rx="7" fill="url(#darkGradient)"/>
  
  <!-- Subtle inner glow -->
  <rect width="32" height="32" rx="7" fill="url(#glowGradient)" opacity="0.6"/>
  
  <!-- Link icon in primary blue -->
  <path d="M17.4 13.6L14.6 16.4C14 17 13 17 12.4 16.4C11.8 15.8 11.8 14.8 12.4 14.2L15.2 11.4C17 9.6 19.8 9.6 21.6 11.4C23.4 13.2 23.4 16 21.6 17.8L18.8 20.6C18.2 21.2 17.2 21.2 16.6 20.6C16 20 16 19 16.6 18.4L19.4 15.6C20 15 20 14 19.4 13.4C18.8 12.8 17.8 12.8 17.2 13.4L14.4 16.2" 
        stroke="#3B82F6" 
        stroke-width="2" 
        stroke-linecap="round" 
        stroke-linejoin="round" 
        fill="none"/>
  
  <path d="M14.6 18.4L17.4 15.6C18 15 19 15 19.6 15.6C20.2 16.2 20.2 17.2 19.6 17.8L16.8 20.6C15 22.4 12.2 22.4 10.4 20.6C8.6 18.8 8.6 16 10.4 14.2L13.2 11.4C13.8 10.8 14.8 10.8 15.4 11.4C16 12 16 13 15.4 13.6L12.6 16.4C12 17 12 18 12.6 18.6C13.2 19.2 14.2 19.2 14.8 18.6L17.6 15.8" 
        stroke="#3B82F6" 
        stroke-width="2" 
        stroke-linecap="round" 
        stroke-linejoin="round" 
        fill="none"/>
  
  <!-- Subtle shine overlay -->
  <rect width="32" height="32" rx="7" fill="url(#shineGradient)" opacity="0.3"/>
  
  <defs>
    <!-- Dark slate gradient matching logo background -->
    <linearGradient id="darkGradient" x1="0" y1="0" x2="32" y2="32" gradientUnits="userSpaceOnUse">
      <stop offset="0%" stop-color="#0f172a"/>
      <stop offset="50%" stop-color="#1e293b"/>
      <stop offset="100%" stop-color="#334155"/>
    </linearGradient>
    
    <!-- Blue glow effect -->
    <radialGradient id="glowGradient" cx="16" cy="16" r="16" gradientUnits="userSpaceOnUse">
      <stop offset="0%" stop-color="#3B82F6" stop-opacity="0.15"/>
      <stop offset="100%" stop-color="#1e40af" stop-opacity="0"/>
    </radialGradient>
    
    <!-- Shine overlay -->
    <linearGradient id="shineGradient" x1="0" y1="0" x2="32" y2="0" gradientUnits="userSpaceOnUse">
      <stop offset="0%" stop-color="#ffffff" stop-opacity="0"/>
      <stop offset="50%" stop-color="#ffffff" stop-opacity="0.1"/>
      <stop offset="100%" stop-color="#ffffff" stop-opacity="0"/>
    </linearGradient>
  </defs>
</svg>
