<svg width="512" height="512" viewBox="0 0 512 512" fill="none" xmlns="http://www.w3.org/2000/svg">
  <!-- Background with gradient -->
  <rect width="512" height="512" rx="128" fill="url(#gradient)"/>
  
  <!-- Glass morphism overlay -->
  <rect width="512" height="512" rx="128" fill="url(#glassGradient)" opacity="0.4"/>
  
  <!-- Link/Chain icon -->
  <path d="M278.4 217.6L233.6 262.4C223.2 272.8 206.4 272.8 196 262.4C185.6 252 185.6 235.2 196 224.8L240.8 180C272.8 148 323.2 148 355.2 180C387.2 212 387.2 262.4 355.2 294.4L310.4 339.2C300 349.6 283.2 349.6 272.8 339.2C262.4 328.8 262.4 312 272.8 301.6L317.6 256.8C328 246.4 328 229.6 317.6 219.2C307.2 208.8 290.4 208.8 280 219.2L235.2 264" 
        stroke="white" 
        stroke-width="28" 
        stroke-linecap="round" 
        stroke-linejoin="round" 
        fill="none"/>
  
  <path d="M233.6 294.4L278.4 249.6C288.8 239.2 305.6 239.2 316 249.6C326.4 260 326.4 276.8 316 287.2L271.2 332C239.2 364 188.8 364 156.8 332C124.8 300 124.8 249.6 156.8 217.6L201.6 172.8C212 162.4 228.8 162.4 239.2 172.8C249.6 183.2 249.6 200 239.2 210.4L194.4 255.2C184 265.6 184 282.4 194.4 292.8C204.8 303.2 221.6 303.2 232 292.8L276.8 248" 
        stroke="white" 
        stroke-width="28" 
        stroke-linecap="round" 
        stroke-linejoin="round" 
        fill="none"/>
  
  <!-- Gradients -->
  <defs>
    <linearGradient id="gradient" x1="0" y1="0" x2="512" y2="512" gradientUnits="userSpaceOnUse">
      <stop offset="0%" stop-color="#8B5CF6"/>
      <stop offset="50%" stop-color="#A78BFA"/>
      <stop offset="100%" stop-color="#7C3AED"/>
    </linearGradient>
    
    <linearGradient id="glassGradient" x1="0" y1="0" x2="512" y2="0" gradientUnits="userSpaceOnUse">
      <stop offset="0%" stop-color="white" stop-opacity="0.2"/>
      <stop offset="100%" stop-color="white" stop-opacity="0"/>
    </linearGradient>
  </defs>
</svg>

