<svg width="44" height="44" viewBox="0 0 44 44" fill="none" xmlns="http://www.w3.org/2000/svg">
  <defs>
    <!-- Dark gradient background -->
    <linearGradient id="bgGradient" x1="0" y1="0" x2="44" y2="44" gradientUnits="userSpaceOnUse">
      <stop offset="0%" stop-color="#0f172a"/>
      <stop offset="50%" stop-color="#1e293b"/>
      <stop offset="100%" stop-color="#334155"/>
    </linearGradient>
    
    <!-- Primary glow effect -->
    <linearGradient id="glowGradient" x1="0" y1="0" x2="44" y2="44" gradientUnits="userSpaceOnUse">
      <stop offset="0%" stop-color="#0F7EF3" stop-opacity="0.1"/>
      <stop offset="50%" stop-color="transparent"/>
      <stop offset="100%" stop-color="#0A5FC7" stop-opacity="0.1"/>
    </linearGradient>
    
    <!-- Shine overlay -->
    <linearGradient id="shineGradient" x1="0" y1="0" x2="44" y2="0" gradientUnits="userSpaceOnUse">
      <stop offset="0%" stop-color="#ffffff" stop-opacity="0"/>
      <stop offset="50%" stop-color="#ffffff" stop-opacity="0.05"/>
      <stop offset="100%" stop-color="#ffffff" stop-opacity="0"/>
    </linearGradient>
    
    <!-- Shadow filter -->
    <filter id="shadow" x="-50%" y="-50%" width="200%" height="200%">
      <feGaussianBlur in="SourceAlpha" stdDeviation="3"/>
      <feOffset dx="0" dy="4" result="offsetblur"/>
      <feComponentTransfer>
        <feFuncA type="linear" slope="0.2"/>
      </feComponentTransfer>
      <feMerge>
        <feMergeNode/>
        <feMergeNode in="SourceGraphic"/>
      </feMerge>
    </filter>
  </defs>
  
  <!-- Background with gradient -->
  <rect width="44" height="44" rx="16" fill="url(#bgGradient)"/>
  
  <!-- Glow overlay -->
  <rect width="44" height="44" rx="16" fill="url(#glowGradient)" opacity="0.5"/>
  
  <!-- Link icon -->
  <g transform="translate(10, 10)">
    <path 
      d="M13.19 8.688a4.5 4.5 0 011.242 7.244l-4.5 4.5a4.5 4.5 0 01-6.364-6.364l1.757-1.757m13.35-.622l1.757-1.757a4.5 4.5 0 00-6.364-6.364l-4.5 4.5a4.5 4.5 0 001.242 7.244" 
      stroke="#0F7EF3" 
      stroke-width="2.5" 
      stroke-linecap="round" 
      stroke-linejoin="round" 
      fill="none"
      filter="url(#shadow)"/>
  </g>
  
  <!-- Shine overlay -->
  <rect width="44" height="44" rx="16" fill="url(#shineGradient)" opacity="0.3"/>
</svg>

